<svg width="27" height="27" viewBox="0 0 27 27" fill="none" xmlns="http://www.w3.org/2000/svg">
<path d="M20.709 4.67101C20.3886 4.67101 20.0754 4.76602 19.809 4.94403C19.5426 5.12204 19.335 5.37505 19.2124 5.67106C19.0897 5.96708 19.0577 6.29281 19.1202 6.60706C19.1827 6.92131 19.337 7.20997 19.5635 7.43653C19.7901 7.66309 20.0787 7.81738 20.393 7.87989C20.7072 7.9424 21.033 7.91032 21.329 7.7877C21.625 7.66509 21.878 7.45745 22.056 7.19104C22.234 6.92463 22.329 6.61142 22.329 6.29101C22.329 5.86136 22.1584 5.44931 21.8546 5.1455C21.5507 4.84169 21.1387 4.67101 20.709 4.67101ZM26.9191 7.93802C26.8928 6.81792 26.683 5.70971 26.2981 4.65751C25.9548 3.75724 25.4205 2.94203 24.7321 2.268C24.0636 1.57603 23.2465 1.04514 22.3425 0.715501C21.2931 0.318818 20.1837 0.104234 19.062 0.0810001C17.631 -7.54373e-08 17.172 0 13.5 0C9.82802 0 9.36902 -7.54373e-08 7.93802 0.0810001C6.81637 0.104234 5.70692 0.318818 4.65751 0.715501C3.75527 1.04848 2.93887 1.57891 2.268 2.268C1.57603 2.9365 1.04514 3.7536 0.715501 4.65751C0.318818 5.70692 0.104234 6.81637 0.0810001 7.93802C-7.54373e-08 9.36902 0 9.82802 0 13.5C0 17.172 -7.54373e-08 17.631 0.0810001 19.062C0.104234 20.1837 0.318818 21.2931 0.715501 22.3425C1.04514 23.2465 1.57603 24.0636 2.268 24.7321C2.93887 25.4211 3.75527 25.9516 4.65751 26.2846C5.70692 26.6812 6.81637 26.8958 7.93802 26.9191C9.36902 27.0001 9.82802 27.0001 13.5 27.0001C17.172 27.0001 17.631 27.0001 19.062 26.9191C20.1837 26.8958 21.2931 26.6812 22.3425 26.2846C23.2465 25.9549 24.0636 25.424 24.7321 24.7321C25.4236 24.0605 25.9583 23.2446 26.2981 22.3425C26.683 21.2903 26.8928 20.1821 26.9191 19.062C26.9191 17.631 27.0001 17.172 27.0001 13.5C27.0001 9.82802 27.0001 9.36902 26.9191 7.93802ZM24.4891 18.9C24.4792 19.757 24.324 20.606 24.03 21.411C23.8145 21.9986 23.4683 22.5294 23.0175 22.9635C22.5797 23.4097 22.0499 23.7552 21.465 23.9761C20.66 24.27 19.811 24.4252 18.954 24.4351C17.604 24.5026 17.1045 24.5161 13.554 24.5161C10.0035 24.5161 9.50402 24.5161 8.15402 24.4351C7.26422 24.4517 6.37822 24.3147 5.53501 24.03C4.97582 23.798 4.47034 23.4533 4.05001 23.0175C3.60193 22.5839 3.26005 22.0526 3.05101 21.465C2.72141 20.6485 2.5386 19.7802 2.51101 18.9C2.51101 17.55 2.43001 17.0505 2.43001 13.5C2.43001 9.94952 2.43 9.45002 2.51101 8.10002C2.51706 7.22394 2.67699 6.35574 2.98351 5.53501C3.22117 4.96519 3.58597 4.45725 4.05001 4.05001C4.46016 3.58583 4.96705 3.21719 5.53501 2.97001C6.35791 2.67306 7.22521 2.51786 8.10002 2.51101C9.45002 2.51101 9.94952 2.43001 13.5 2.43001C17.0505 2.43001 17.55 2.43 18.9 2.51101C19.757 2.52083 20.606 2.67604 21.411 2.97001C22.0245 3.19769 22.5751 3.56785 23.0175 4.05001C23.4599 4.4647 23.8056 4.9717 24.03 5.53501C24.3301 6.35707 24.4854 7.22492 24.4891 8.10002C24.5566 9.45002 24.5701 9.94952 24.5701 13.5C24.5701 17.0505 24.5566 17.55 24.4891 18.9ZM13.5 6.57451C12.1309 6.57718 10.7932 6.98562 9.6561 7.74823C8.51899 8.51084 7.63343 9.59338 7.11132 10.8591C6.58921 12.1248 6.45399 13.5169 6.72274 14.8594C6.99148 16.2019 7.65213 17.4347 8.62122 18.4019C9.59031 19.3691 10.8243 20.0273 12.1674 20.2934C13.5104 20.5596 14.9022 20.4216 16.1669 19.8971C17.4316 19.3725 18.5124 18.4848 19.2728 17.3462C20.0332 16.2076 20.439 14.8692 20.439 13.5C20.4408 12.5889 20.2625 11.6864 19.9142 10.8445C19.566 10.0026 19.0547 9.23781 18.4098 8.59419C17.7649 7.95056 16.9992 7.44078 16.1566 7.09417C15.314 6.74756 14.4111 6.57095 13.5 6.57451ZM13.5 17.9955C12.6109 17.9955 11.7417 17.7319 11.0025 17.2379C10.2632 16.7439 9.68697 16.0418 9.34672 15.2204C9.00646 14.3989 8.91744 13.495 9.0909 12.623C9.26436 11.751 9.69251 10.9499 10.3212 10.3212C10.9499 9.69251 11.751 9.26436 12.623 9.0909C13.495 8.91744 14.3989 9.00646 15.2204 9.34672C16.0418 9.68697 16.7439 10.2632 17.2379 11.0025C17.7319 11.7417 17.9955 12.6109 17.9955 13.5C17.9955 14.0904 17.8793 14.675 17.6533 15.2204C17.4274 15.7658 17.0963 16.2614 16.6788 16.6788C16.2614 17.0963 15.7658 17.4274 15.2204 17.6533C14.675 17.8793 14.0904 17.9955 13.5 17.9955Z" fill="#111111"/>
</svg>
