<svg width="29" height="24" viewBox="0 0 29 24" fill="none" xmlns="http://www.w3.org/2000/svg">
<path d="M29 2.82837C27.9101 3.30121 26.7574 3.61378 25.578 3.75637C26.8223 3.01298 27.7548 1.8435 28.2025 0.46487C27.0331 1.16096 25.7531 1.6514 24.418 1.91487C23.5256 0.947099 22.3372 0.3029 21.0392 0.0833049C19.7412 -0.13629 18.4071 0.0811401 17.246 0.701494C16.0849 1.32185 15.1625 2.31004 14.6236 3.51108C14.0846 4.71212 13.9596 6.05808 14.268 7.33786C11.9037 7.21828 9.59093 6.60265 7.48004 5.53097C5.36915 4.45928 3.50732 2.95552 2.0155 1.11737C1.49225 2.03111 1.2173 3.06591 1.218 4.11887C1.21614 5.09672 1.45611 6.05986 1.91654 6.92253C2.37697 7.78521 3.04357 8.52064 3.857 9.06336C2.91156 9.03764 1.98633 8.78395 1.16 8.32386V8.39636C1.16709 9.76645 1.64719 11.092 2.5191 12.1489C3.39102 13.2058 4.60122 13.929 5.94499 14.1964C5.42772 14.3538 4.89066 14.4368 4.35 14.4429C3.97574 14.4385 3.60241 14.4045 3.2335 14.3414C3.61617 15.5199 4.3567 16.5499 5.35205 17.288C6.34741 18.0261 7.54808 18.4355 8.78699 18.4594C6.69494 20.1055 4.11203 21.0039 1.45 21.0114C0.965315 21.0129 0.481016 20.9839 0 20.9244C2.71792 22.6792 5.88527 23.6108 9.12049 23.6069C11.353 23.63 13.5678 23.2081 15.6355 22.3658C17.7032 21.5234 19.5823 20.2775 21.163 18.7008C22.7438 17.1241 23.9945 15.2482 24.8422 13.1827C25.6898 11.1172 26.1174 8.90347 26.1 6.67086C26.1 6.42436 26.1 6.16336 26.1 5.90237C27.2378 5.05384 28.2191 4.01363 29 2.82837Z" fill="#111111"/>
</svg>
