<svg width="21" height="37" viewBox="0 0 21 37" fill="none" xmlns="http://www.w3.org/2000/svg">
<path d="M13.1075 0.486894H19.9429C19.9468 0.486894 19.9511 0.488348 19.9547 0.489863C19.9582 0.491374 19.9619 0.493078 19.9646 0.495801C19.9673 0.498518 19.969 0.502119 19.9706 0.505697C19.9721 0.509369 19.9735 0.513588 19.9735 0.517572V7.70025C19.9735 7.70849 19.9694 7.71629 19.9637 7.72202C19.958 7.72758 19.9507 7.73081 19.9429 7.73093H13.9636C12.97 7.73093 12.1644 8.5365 12.1644 9.53006V12.6276H19.9429C19.9508 12.6277 19.958 12.6308 19.9637 12.6365C19.9695 12.6423 19.9735 12.6499 19.9735 12.6583V19.9538C19.9735 19.9621 19.9694 19.9697 19.9637 19.9755C19.958 19.9812 19.9508 19.9853 19.9429 19.9854H12.682V36.4814C12.682 36.4897 12.6788 36.4974 12.6731 36.5032C12.6673 36.509 12.6594 36.5131 12.6513 36.5131H5.75861C5.75059 36.5131 5.7426 36.509 5.73684 36.5032C5.73124 36.4974 5.72793 36.4896 5.72793 36.4814V19.9844H0.517572C0.509632 19.9843 0.501506 19.9812 0.495801 19.9755C0.490209 19.9698 0.486989 19.9619 0.486894 19.9538V12.6573C0.487005 12.6492 0.490204 12.6412 0.495801 12.6355C0.501506 12.6298 0.509631 12.6267 0.517572 12.6266H5.72793V9.18172C5.72796 9.17877 5.72824 9.17566 5.72892 9.17281L5.74278 9.11739V9.05999C5.74458 6.96691 5.97413 4.82816 6.98475 3.21726C7.96621 1.65309 9.74263 0.499347 13.063 0.488873H13.0848L13.1075 0.486894Z" fill="#111111" stroke="#111111" stroke-width="0.961445"/>
</svg>
